<?xml version="1.0" encoding="utf-8"?>
<!-- Generator: Adobe Illustrator 24.0.0, SVG Export Plug-In . SVG Version: 6.00 Build 0)  -->
<svg version="1.1" id="Layer_1" xmlns="http://www.w3.org/2000/svg" xmlns:xlink="http://www.w3.org/1999/xlink" x="0px" y="0px"
	 viewBox="0 0 102 102" style="enable-background:new 0 0 102 102;" xml:space="preserve">
<style type="text/css">
	.st0{fill:#FFFFFF;}
	.st1{fill:#FF5B60;}
</style>
<g>
	<circle class="st0" cx="51" cy="51" r="51"/>
</g>
<g>
	<path class="st1" d="M2.7,50.1c0.2-3.3,2.4-5.8,6.5-5.5c4.2,0.3,5.9,3.1,5.7,6.4l-0.9,12c-0.2,3.3-2.4,5.8-6.5,5.5
		c-4.2-0.3-5.9-3.1-5.7-6.4L2.7,50.1z M5.8,62.2C5.7,64,6.2,64.9,7.8,65c1.6,0.1,2.2-0.7,2.3-2.4L11,50.8C11.1,49,10.6,48.2,9,48
		c-1.6-0.1-2.2,0.7-2.3,2.4L5.8,62.2z"/>
	<path class="st1" d="M16,68.6l1.7-23.2l5.7,0.4c4.9,0.4,7.1,2.4,6.7,7.4c-0.4,5-2.8,6.7-7.7,6.3l-1.7-0.1L20,68.9L16,68.6z
		 M21,56.1l1.5,0.1c2.6,0.2,3.5-0.6,3.7-3.3c0.2-2.8-0.5-3.6-3.2-3.8l-1.5-0.1L21,56.1z"/>
	<path class="st1" d="M30.7,69.7l1.7-23.2L43,47.2l-0.3,3.5l-6.7-0.5l-0.4,6l5.1,0.4L40.6,60l-5.1-0.4l-0.5,6.8l7.1,0.5l-0.3,3.5
		L30.7,69.7z"/>
	<path class="st1" d="M44.1,70.8l1.7-23.2l3.7,0.3l3.9,13.6l0.1,0l1-13.3l3.6,0.3l-1.7,23.2l-3.5-0.3l-4-14.9l-0.1,0L47.7,71
		L44.1,70.8z"/>
</g>
<g>
	<path class="st1" d="M46.5,86.2l-0.9-1.6c-1-1.7-2.2-2-3.1-1.5c-1.4,0.8-1.4,1.8-0.6,3.3l5.9,10.3c0.9,1.5,1.7,2,3.1,1.2
		c1.3-0.7,1.3-1.7,0.5-3l-1.4-2.4l3.5-2l1.3,2.3c1.6,2.9,1.3,6.1-2.2,8.1c-3.6,2.1-6.7,0.7-8.3-2.1l-5.9-10.4
		c-1.6-2.9-1.3-6.1,2.4-8.2c3.5-2,6.6-0.4,8.3,2.6l0.8,1.5L46.5,86.2z"/>
	<path class="st1" d="M63.4,94.4L60,96.3L52.2,74l4.3-2.5l15.3,18.1l-3.4,1.9l-3.2-4.1l-3.8,2.2L63.4,94.4z M60.2,86.3l2.8-1.6
		l-6.3-7.9l-0.1,0L60.2,86.3z"/>
	<path class="st1" d="M74.3,88.2L62.8,68l3.5-2L76,83.2l5.5-3.1l1.7,3L74.3,88.2z"/>
	<path class="st1" d="M85.8,81.6L74.2,61.4l3.5-2l9.8,17.2l5.5-3.1l1.7,3L85.8,81.6z"/>
</g>
</svg>
