<svg xmlns="http://www.w3.org/2000/svg" width="24" height="24" viewBox="0 0 24 24"><title>SG-HOME-youtube</title><g id="youtube"><path d="M18,12.453a18.14624,18.14624,0,0,1-.12,1.942,2.59876,2.59876,0,0,1-.477,1.192,1.71519,1.71519,0,0,1-1.202.508c-1.679.121-4.201.125-4.201.125s-3.12-.028-4.08-.121a2.0309,2.0309,0,0,1-1.323-.512,2.59876,2.59876,0,0,1-.477-1.192A18.14624,18.14624,0,0,1,6,12.453v-.91a18.14624,18.14624,0,0,1,.12-1.942A2.59256,2.59256,0,0,1,6.597,8.41a1.71742,1.71742,0,0,1,1.202-.509c1.68-.121,4.198-.121,4.198-.121h.006s2.519,0,4.198.121a1.71742,1.71742,0,0,1,1.202.509,2.59256,2.59256,0,0,1,.477,1.191A18.14624,18.14624,0,0,1,18,11.543ZM12,0A12,12,0,1,0,24,12,12.00053,12.00053,0,0,0,12,0M10.7612,13.5566l3.242-1.68-3.243-1.692Z" fill="#ff2020"/></g></svg>
