<?xml version="1.0" encoding="utf-8"?>
<!-- Generator: Adobe Illustrator 20.0.0, SVG Export Plug-In . SVG Version: 6.00 Build 0)  -->
<svg version="1.1" id="Ebene_1" xmlns="http://www.w3.org/2000/svg" xmlns:xlink="http://www.w3.org/1999/xlink" x="0px" y="0px"
	 viewBox="0 0 5 20" style="enable-background:new 0 0 5 20;" xml:space="preserve">
<path d="M2.5,5C1.1,5,0,3.9,0,2.5C0,1.1,1.1,0,2.5,0S5,1.1,5,2.5C5,3.9,3.9,5,2.5,5 M2.5,12.5C3.9,12.5,5,11.4,5,10
	S3.9,7.5,2.5,7.5S0,8.6,0,10S1.1,12.5,2.5,12.5 M2.5,20C3.9,20,5,18.9,5,17.5S3.9,15,2.5,15S0,16.1,0,17.5S1.1,20,2.5,20"/>
</svg>
