<svg id="Ebene_1" data-name="Ebene 1" xmlns="http://www.w3.org/2000/svg" viewBox="0 0 100 100"><defs><style>.cls-1{fill:#fff;}.cls-2{fill:none;}</style></defs><title>logo</title><path class="cls-1" d="M65.11,88.49c0,2.76-1,3.79-4.58,3.79S56,91.26,56,88.49V86.68h9.16ZM39.6,81.62v5.06l12.08.08a24.31,24.31,0,0,0,.16,2.61L39.6,93v5.13L53,93.79c.79,1.74,2.77,3.56,7.5,3.56,6.32,0,8.69-2.84,8.69-8.61V81.62Z"/><path class="cls-1" d="M54.91,73.68c-2.51,2.51-4,2.51-6.31.17l-1.4-1.4L53.68,66l1.4,1.4c2.35,2.35,2.35,3.8-.17,6.31m3.24-9L53,59.49,32.06,80.44l3.52,3.63,8.6-8.6L45.75,77c4.41,4.41,8.21,4.75,12.68.28s4.13-8.27-.28-12.68"/><rect class="cls-2" width="100" height="100"/><path class="cls-1" d="M19.32,79.44l-.06-.06L26.86,69l2.9,2.91ZM38.7,65.31l-5.31,4-4-4,4-5.25L30,56.6,12.89,81.4l4.47,4.47,24.8-17.09Z"/><path class="cls-1" d="M85.81,72.08l-12.72,2V69.94L85.81,72Zm-23.7-8.69v4.9l6.56.87v5.61l-6.56.95v4.9l29.62-5.45V68.84Z"/><rect class="cls-1" x="57.13" y="57.21" width="29.62" height="5.06"/></svg>