<?xml version="1.0" encoding="utf-8"?>
<!-- Generator: Adobe Illustrator 24.0.1, SVG Export Plug-In . SVG Version: 6.00 Build 0)  -->
<svg version="1.1" id="Layer_1" xmlns="http://www.w3.org/2000/svg" xmlns:xlink="http://www.w3.org/1999/xlink" x="0px" y="0px"
	 viewBox="0 0 153.07 153.07" style="enable-background:new 0 0 153.07 153.07;" xml:space="preserve">
<style type="text/css">
	.st0{fill:#FF0000;}
	.st1{fill:#FFFFFF;}
</style>
<path class="st0" d="M153.07,76.53c0,42.27-34.27,76.54-76.54,76.54C34.27,153.07,0,118.8,0,76.53C0,34.27,34.27,0,76.54,0
	C118.8,0,153.07,34.27,153.07,76.53"/>
<path class="st1" d="M10.45,89.78c-0.19,2.66,0.5,4,2.96,4.18c2.46,0.18,3.35-1.05,3.54-3.71l1.32-18.03c0.19-2.66-0.5-4-2.96-4.18
	c-2.46-0.18-3.34,1.04-3.54,3.7L10.45,89.78z M5.67,71.16c0.37-5.03,3.62-8.9,10.02-8.43c6.41,0.47,9.06,4.77,8.69,9.8l-1.34,18.33
	c-0.37,5.02-3.62,8.9-10.02,8.43c-6.4-0.47-9.06-4.77-8.69-9.8L5.67,71.16z"/>
<path class="st1" d="M33.59,80.36l2.37,0.17c3.99,0.29,5.31-0.85,5.62-5.09c0.31-4.24-0.83-5.56-4.82-5.85l-2.37-0.17L33.59,80.36z
	 M26.05,99.52l2.6-35.57l8.77,0.64c7.54,0.55,10.82,3.71,10.27,11.3c-0.55,7.59-4.26,10.24-11.8,9.69l-2.66-0.19l-1.07,14.58
	L26.05,99.52z"/>
<polygon class="st1" points="48.43,101.17 51.03,65.6 67.39,66.79 67,72.11 56.75,71.36 56.08,80.53 63.96,81.1 63.57,86.42 
	55.69,85.85 54.93,96.29 65.87,97.09 65.48,102.41 "/>
<polygon class="st1" points="69.05,102.86 71.65,67.29 77.31,67.71 83.27,88.6 83.36,88.6 84.85,68.26 90.37,68.66 87.77,104.23 
	82.45,103.84 76.29,81.05 76.19,81.05 74.57,103.27 "/>
<g>
	<path class="st1" d="M67.85,126.13l-1.37-2.4c-1.49-2.62-3.33-3.04-4.7-2.26c-2.14,1.22-2.19,2.73-0.87,5.05l8.96,15.7
		c1.32,2.32,2.65,3.04,4.79,1.82c1.93-1.1,1.94-2.58,0.79-4.6l-2.13-3.73l5.32-3.04l2.03,3.56c2.5,4.38,1.96,9.41-3.37,12.44
		c-5.58,3.18-10.18,1.09-12.68-3.29l-9.11-15.96c-2.5-4.38-1.96-9.4,3.62-12.59c5.32-3.04,10.1-0.65,12.74,3.99l1.3,2.28
		L67.85,126.13z"/>
</g>
<path class="st1" d="M88.78,126.29l4.29-2.45l-9.69-12.1l-0.09,0.05L88.78,126.29z M93.63,138.77l-5.15,2.94l-11.97-34.23l6.61-3.77
	l23.38,27.72l-5.15,2.94l-4.86-6.33l-5.84,3.33L93.63,138.77z"/>
<polygon class="st1" points="110.33,129.23 92.66,98.26 97.98,95.23 113.01,121.57 121.38,116.79 124.02,121.43 "/>
<polygon class="st1" points="127.92,119.2 110.24,88.23 115.56,85.19 130.59,111.53 138.96,106.76 141.6,111.39 "/>
</svg>
